<svg id="visual" viewBox="0 0 900 600" width="1500" height="1000" xmlns="http://www.w3.org/2000/svg" xmlns:xlink="http://www.w3.org/1999/xlink" version="1.1"><rect x="0" y="0" width="900" height="600" fill="#002233"></rect><path d="M0 288L21.5 328C43 368 86 448 128.8 475.8C171.7 503.7 214.3 479.3 257.2 438.2C300 397 343 339 385.8 331.8C428.7 324.7 471.3 368.3 514.2 365.2C557 362 600 312 642.8 326C685.7 340 728.3 418 771.2 446.5C814 475 857 454 878.5 443.5L900 433L900 601L878.5 601C857 601 814 601 771.2 601C728.3 601 685.7 601 642.8 601C600 601 557 601 514.2 601C471.3 601 428.7 601 385.8 601C343 601 300 601 257.2 601C214.3 601 171.7 601 128.8 601C86 601 43 601 21.5 601L0 601Z" fill="#121212" stroke-linecap="round" stroke-linejoin="miter"></path></svg>